<mxfile host="app.diagrams.net" modified="2020-11-10T21:17:32.266Z" agent="5.0 (X11; Linux x86_64) AppleWebKit/537.36 (KHTML, like Gecko) Chrome/86.0.4240.183 Safari/537.36 OPR/72.0.3815.207" etag="jXBfpFrbHIMvl6eCQt0h" version="13.9.3" type="github">
  <diagram name="Page-1" id="c4acf3e9-155e-7222-9cf6-157b1a14988f">
    <mxGraphModel dx="2476" dy="2026" grid="1" gridSize="10" guides="1" tooltips="1" connect="1" arrows="1" fold="1" page="1" pageScale="1" pageWidth="850" pageHeight="1100" background="#ffffff" math="0" shadow="0">
      <root>
        <mxCell id="0" />
        <mxCell id="1" parent="0" />
        <mxCell id="Zq1ixPwVC3m1ni08tat3-70" value="Server" style="shape=umlFrame;whiteSpace=wrap;html=1;rounded=0;shadow=0;comic=0;labelBackgroundColor=none;strokeWidth=1;fontFamily=Verdana;fontSize=10;align=center;" vertex="1" parent="1">
          <mxGeometry x="760" y="-20" width="890" height="620" as="geometry" />
        </mxCell>
        <mxCell id="17acba5748e5396b-1" value="Client" style="shape=umlFrame;whiteSpace=wrap;html=1;rounded=0;shadow=0;comic=0;labelBackgroundColor=none;strokeWidth=1;fontFamily=Verdana;fontSize=10;align=center;" parent="1" vertex="1">
          <mxGeometry x="-80" y="-20" width="760" height="620" as="geometry" />
        </mxCell>
        <mxCell id="17acba5748e5396b-20" value="Classname" style="swimlane;html=1;fontStyle=0;childLayout=stackLayout;horizontal=1;startSize=26;fillColor=none;horizontalStack=0;resizeParent=1;resizeLast=0;collapsible=1;marginBottom=0;swimlaneFillColor=#ffffff;rounded=0;shadow=0;comic=0;labelBackgroundColor=none;strokeWidth=1;fontFamily=Verdana;fontSize=10;align=center;" parent="1" vertex="1">
          <mxGeometry x="1000" y="725" width="160" height="110" as="geometry" />
        </mxCell>
        <mxCell id="17acba5748e5396b-21" value="+ field: type" style="text;html=1;strokeColor=none;fillColor=none;align=left;verticalAlign=top;spacingLeft=4;spacingRight=4;whiteSpace=wrap;overflow=hidden;rotatable=0;points=[[0,0.5],[1,0.5]];portConstraint=eastwest;" parent="17acba5748e5396b-20" vertex="1">
          <mxGeometry y="26" width="160" height="26" as="geometry" />
        </mxCell>
        <mxCell id="17acba5748e5396b-24" value="+ field: type" style="text;html=1;strokeColor=none;fillColor=none;align=left;verticalAlign=top;spacingLeft=4;spacingRight=4;whiteSpace=wrap;overflow=hidden;rotatable=0;points=[[0,0.5],[1,0.5]];portConstraint=eastwest;" parent="17acba5748e5396b-20" vertex="1">
          <mxGeometry y="52" width="160" height="26" as="geometry" />
        </mxCell>
        <mxCell id="17acba5748e5396b-26" value="+ field: type" style="text;html=1;strokeColor=none;fillColor=none;align=left;verticalAlign=top;spacingLeft=4;spacingRight=4;whiteSpace=wrap;overflow=hidden;rotatable=0;points=[[0,0.5],[1,0.5]];portConstraint=eastwest;" parent="17acba5748e5396b-20" vertex="1">
          <mxGeometry y="78" width="160" height="26" as="geometry" />
        </mxCell>
        <mxCell id="5d2195bd80daf111-21" style="edgeStyle=orthogonalEdgeStyle;rounded=0;html=1;labelBackgroundColor=none;startFill=0;endArrow=open;endFill=0;endSize=10;fontFamily=Verdana;fontSize=10;dashed=1;" parent="1" source="5d2195bd80daf111-18" target="17acba5748e5396b-20" edge="1">
          <mxGeometry relative="1" as="geometry" />
        </mxCell>
        <mxCell id="5d2195bd80daf111-18" value="&lt;p style=&quot;margin:0px;margin-top:4px;text-align:center;&quot;&gt;&lt;i&gt;&amp;lt;&amp;lt;Interface&amp;gt;&amp;gt;&lt;/i&gt;&lt;br/&gt;&lt;b&gt;Interface&lt;/b&gt;&lt;/p&gt;&lt;hr size=&quot;1&quot;/&gt;&lt;p style=&quot;margin:0px;margin-left:4px;&quot;&gt;+ field1: Type&lt;br/&gt;+ field2: Type&lt;/p&gt;&lt;hr size=&quot;1&quot;/&gt;&lt;p style=&quot;margin:0px;margin-left:4px;&quot;&gt;+ method1(Type): Type&lt;br/&gt;+ method2(Type, Type): Type&lt;/p&gt;" style="verticalAlign=top;align=left;overflow=fill;fontSize=12;fontFamily=Helvetica;html=1;rounded=0;shadow=0;comic=0;labelBackgroundColor=none;strokeWidth=1" parent="1" vertex="1">
          <mxGeometry x="1210" y="710" width="190" height="140" as="geometry" />
        </mxCell>
        <mxCell id="Zq1ixPwVC3m1ni08tat3-8" style="edgeStyle=orthogonalEdgeStyle;rounded=0;orthogonalLoop=1;jettySize=auto;html=1;exitX=0.5;exitY=0;exitDx=0;exitDy=0;exitPerimeter=0;entryX=0.25;entryY=1;entryDx=0;entryDy=0;" edge="1" parent="1" source="Zq1ixPwVC3m1ni08tat3-1" target="Zq1ixPwVC3m1ni08tat3-3">
          <mxGeometry relative="1" as="geometry" />
        </mxCell>
        <mxCell id="Zq1ixPwVC3m1ni08tat3-1" value="stdin" style="strokeWidth=2;html=1;shape=mxgraph.flowchart.document2;whiteSpace=wrap;size=0.25;" vertex="1" parent="1">
          <mxGeometry x="90" y="500" width="100" height="60" as="geometry" />
        </mxCell>
        <mxCell id="Zq1ixPwVC3m1ni08tat3-9" style="edgeStyle=orthogonalEdgeStyle;rounded=0;orthogonalLoop=1;jettySize=auto;html=1;exitX=0.5;exitY=0;exitDx=0;exitDy=0;exitPerimeter=0;entryX=0.75;entryY=1;entryDx=0;entryDy=0;" edge="1" parent="1" source="Zq1ixPwVC3m1ni08tat3-2" target="Zq1ixPwVC3m1ni08tat3-3">
          <mxGeometry relative="1" as="geometry" />
        </mxCell>
        <mxCell id="Zq1ixPwVC3m1ni08tat3-2" value="file.txt" style="strokeWidth=2;html=1;shape=mxgraph.flowchart.document2;whiteSpace=wrap;size=0.25;" vertex="1" parent="1">
          <mxGeometry x="230" y="500" width="100" height="60" as="geometry" />
        </mxCell>
        <mxCell id="Zq1ixPwVC3m1ni08tat3-15" style="edgeStyle=orthogonalEdgeStyle;rounded=0;orthogonalLoop=1;jettySize=auto;html=1;exitX=0.25;exitY=0;exitDx=0;exitDy=0;entryX=0;entryY=0.5;entryDx=0;entryDy=0;" edge="1" parent="1" source="Zq1ixPwVC3m1ni08tat3-3" target="Zq1ixPwVC3m1ni08tat3-12">
          <mxGeometry relative="1" as="geometry">
            <Array as="points">
              <mxPoint x="160" y="229" />
              <mxPoint x="50" y="229" />
              <mxPoint x="50" y="125" />
            </Array>
          </mxGeometry>
        </mxCell>
        <mxCell id="Zq1ixPwVC3m1ni08tat3-3" value="TextEditor" style="swimlane;html=1;fontStyle=0;childLayout=stackLayout;horizontal=1;startSize=26;fillColor=none;horizontalStack=0;resizeParent=1;resizeLast=0;collapsible=1;marginBottom=0;swimlaneFillColor=#ffffff;rounded=0;shadow=0;comic=0;labelBackgroundColor=none;strokeWidth=1;fontFamily=Verdana;fontSize=10;align=center;" vertex="1" parent="1">
          <mxGeometry x="120" y="320" width="160" height="110" as="geometry" />
        </mxCell>
        <mxCell id="Zq1ixPwVC3m1ni08tat3-4" value="+ field: type" style="text;html=1;strokeColor=none;fillColor=none;align=left;verticalAlign=top;spacingLeft=4;spacingRight=4;whiteSpace=wrap;overflow=hidden;rotatable=0;points=[[0,0.5],[1,0.5]];portConstraint=eastwest;" vertex="1" parent="Zq1ixPwVC3m1ni08tat3-3">
          <mxGeometry y="26" width="160" height="26" as="geometry" />
        </mxCell>
        <mxCell id="Zq1ixPwVC3m1ni08tat3-5" value="+ field: type" style="text;html=1;strokeColor=none;fillColor=none;align=left;verticalAlign=top;spacingLeft=4;spacingRight=4;whiteSpace=wrap;overflow=hidden;rotatable=0;points=[[0,0.5],[1,0.5]];portConstraint=eastwest;" vertex="1" parent="Zq1ixPwVC3m1ni08tat3-3">
          <mxGeometry y="52" width="160" height="26" as="geometry" />
        </mxCell>
        <mxCell id="Zq1ixPwVC3m1ni08tat3-6" value="+ field: type" style="text;html=1;strokeColor=none;fillColor=none;align=left;verticalAlign=top;spacingLeft=4;spacingRight=4;whiteSpace=wrap;overflow=hidden;rotatable=0;points=[[0,0.5],[1,0.5]];portConstraint=eastwest;" vertex="1" parent="Zq1ixPwVC3m1ni08tat3-3">
          <mxGeometry y="78" width="160" height="26" as="geometry" />
        </mxCell>
        <mxCell id="Zq1ixPwVC3m1ni08tat3-16" style="edgeStyle=orthogonalEdgeStyle;rounded=0;orthogonalLoop=1;jettySize=auto;html=1;exitX=1;exitY=0.5;exitDx=0;exitDy=0;entryX=0.75;entryY=0;entryDx=0;entryDy=0;" edge="1" parent="1" source="Zq1ixPwVC3m1ni08tat3-13" target="Zq1ixPwVC3m1ni08tat3-3">
          <mxGeometry relative="1" as="geometry" />
        </mxCell>
        <mxCell id="Zq1ixPwVC3m1ni08tat3-10" value="FileController" style="swimlane;html=1;fontStyle=0;childLayout=stackLayout;horizontal=1;startSize=26;fillColor=none;horizontalStack=0;resizeParent=1;resizeLast=0;collapsible=1;marginBottom=0;swimlaneFillColor=#ffffff;rounded=0;shadow=0;comic=0;labelBackgroundColor=none;strokeWidth=1;fontFamily=Verdana;fontSize=10;align=center;" vertex="1" parent="1">
          <mxGeometry x="120" y="50" width="160" height="110" as="geometry" />
        </mxCell>
        <mxCell id="Zq1ixPwVC3m1ni08tat3-11" value="+ field: type" style="text;html=1;strokeColor=none;fillColor=none;align=left;verticalAlign=top;spacingLeft=4;spacingRight=4;whiteSpace=wrap;overflow=hidden;rotatable=0;points=[[0,0.5],[1,0.5]];portConstraint=eastwest;" vertex="1" parent="Zq1ixPwVC3m1ni08tat3-10">
          <mxGeometry y="26" width="160" height="26" as="geometry" />
        </mxCell>
        <mxCell id="Zq1ixPwVC3m1ni08tat3-12" value="+ field: type" style="text;html=1;strokeColor=none;fillColor=none;align=left;verticalAlign=top;spacingLeft=4;spacingRight=4;whiteSpace=wrap;overflow=hidden;rotatable=0;points=[[0,0.5],[1,0.5]];portConstraint=eastwest;" vertex="1" parent="Zq1ixPwVC3m1ni08tat3-10">
          <mxGeometry y="52" width="160" height="26" as="geometry" />
        </mxCell>
        <mxCell id="Zq1ixPwVC3m1ni08tat3-13" value="+ field: type" style="text;html=1;strokeColor=none;fillColor=none;align=left;verticalAlign=top;spacingLeft=4;spacingRight=4;whiteSpace=wrap;overflow=hidden;rotatable=0;points=[[0,0.5],[1,0.5]];portConstraint=eastwest;" vertex="1" parent="Zq1ixPwVC3m1ni08tat3-10">
          <mxGeometry y="78" width="160" height="26" as="geometry" />
        </mxCell>
        <mxCell id="Zq1ixPwVC3m1ni08tat3-17" value="Change" style="ellipse;whiteSpace=wrap;html=1;" vertex="1" parent="1">
          <mxGeometry x="220" y="250" width="40" height="40" as="geometry" />
        </mxCell>
        <mxCell id="Zq1ixPwVC3m1ni08tat3-19" value="Change" style="ellipse;whiteSpace=wrap;html=1;" vertex="1" parent="1">
          <mxGeometry x="30" y="170" width="40" height="40" as="geometry" />
        </mxCell>
        <mxCell id="Zq1ixPwVC3m1ni08tat3-21" value="file.txt" style="strokeWidth=2;html=1;shape=mxgraph.flowchart.document2;whiteSpace=wrap;size=0.25;" vertex="1" parent="1">
          <mxGeometry x="-60" y="60" width="100" height="60" as="geometry" />
        </mxCell>
        <mxCell id="Zq1ixPwVC3m1ni08tat3-22" style="edgeStyle=orthogonalEdgeStyle;rounded=0;orthogonalLoop=1;jettySize=auto;html=1;exitX=0.5;exitY=0;exitDx=0;exitDy=0;entryX=1;entryY=0.5;entryDx=0;entryDy=0;entryPerimeter=0;" edge="1" parent="1" source="Zq1ixPwVC3m1ni08tat3-10" target="Zq1ixPwVC3m1ni08tat3-21">
          <mxGeometry relative="1" as="geometry" />
        </mxCell>
        <mxCell id="Zq1ixPwVC3m1ni08tat3-38" style="edgeStyle=orthogonalEdgeStyle;rounded=0;orthogonalLoop=1;jettySize=auto;html=1;exitX=0.75;exitY=0;exitDx=0;exitDy=0;entryX=0;entryY=0.5;entryDx=0;entryDy=0;" edge="1" parent="1" source="Zq1ixPwVC3m1ni08tat3-23" target="Zq1ixPwVC3m1ni08tat3-13">
          <mxGeometry relative="1" as="geometry">
            <Array as="points">
              <mxPoint x="560" y="180" />
              <mxPoint x="100" y="180" />
              <mxPoint x="100" y="141" />
            </Array>
          </mxGeometry>
        </mxCell>
        <mxCell id="Zq1ixPwVC3m1ni08tat3-23" value="ClientConnection" style="swimlane;html=1;fontStyle=0;childLayout=stackLayout;horizontal=1;startSize=26;fillColor=none;horizontalStack=0;resizeParent=1;resizeLast=0;collapsible=1;marginBottom=0;swimlaneFillColor=#ffffff;rounded=0;shadow=0;comic=0;labelBackgroundColor=none;strokeWidth=1;fontFamily=Verdana;fontSize=10;align=center;" vertex="1" parent="1">
          <mxGeometry x="440" y="320" width="160" height="110" as="geometry" />
        </mxCell>
        <mxCell id="Zq1ixPwVC3m1ni08tat3-24" value="+ field: type" style="text;html=1;strokeColor=none;fillColor=none;align=left;verticalAlign=top;spacingLeft=4;spacingRight=4;whiteSpace=wrap;overflow=hidden;rotatable=0;points=[[0,0.5],[1,0.5]];portConstraint=eastwest;" vertex="1" parent="Zq1ixPwVC3m1ni08tat3-23">
          <mxGeometry y="26" width="160" height="26" as="geometry" />
        </mxCell>
        <mxCell id="Zq1ixPwVC3m1ni08tat3-25" value="+ field: type" style="text;html=1;strokeColor=none;fillColor=none;align=left;verticalAlign=top;spacingLeft=4;spacingRight=4;whiteSpace=wrap;overflow=hidden;rotatable=0;points=[[0,0.5],[1,0.5]];portConstraint=eastwest;" vertex="1" parent="Zq1ixPwVC3m1ni08tat3-23">
          <mxGeometry y="52" width="160" height="26" as="geometry" />
        </mxCell>
        <mxCell id="Zq1ixPwVC3m1ni08tat3-26" value="+ field: type" style="text;html=1;strokeColor=none;fillColor=none;align=left;verticalAlign=top;spacingLeft=4;spacingRight=4;whiteSpace=wrap;overflow=hidden;rotatable=0;points=[[0,0.5],[1,0.5]];portConstraint=eastwest;" vertex="1" parent="Zq1ixPwVC3m1ni08tat3-23">
          <mxGeometry y="78" width="160" height="26" as="geometry" />
        </mxCell>
        <mxCell id="Zq1ixPwVC3m1ni08tat3-27" value="ServerConnection" style="swimlane;html=1;fontStyle=0;childLayout=stackLayout;horizontal=1;startSize=26;fillColor=none;horizontalStack=0;resizeParent=1;resizeLast=0;collapsible=1;marginBottom=0;swimlaneFillColor=#ffffff;rounded=0;shadow=0;comic=0;labelBackgroundColor=none;strokeWidth=1;fontFamily=Verdana;fontSize=10;align=center;" vertex="1" parent="1">
          <mxGeometry x="800" y="320" width="160" height="110" as="geometry" />
        </mxCell>
        <mxCell id="Zq1ixPwVC3m1ni08tat3-28" value="+ field: type" style="text;html=1;strokeColor=none;fillColor=none;align=left;verticalAlign=top;spacingLeft=4;spacingRight=4;whiteSpace=wrap;overflow=hidden;rotatable=0;points=[[0,0.5],[1,0.5]];portConstraint=eastwest;" vertex="1" parent="Zq1ixPwVC3m1ni08tat3-27">
          <mxGeometry y="26" width="160" height="26" as="geometry" />
        </mxCell>
        <mxCell id="Zq1ixPwVC3m1ni08tat3-29" value="+ field: type" style="text;html=1;strokeColor=none;fillColor=none;align=left;verticalAlign=top;spacingLeft=4;spacingRight=4;whiteSpace=wrap;overflow=hidden;rotatable=0;points=[[0,0.5],[1,0.5]];portConstraint=eastwest;" vertex="1" parent="Zq1ixPwVC3m1ni08tat3-27">
          <mxGeometry y="52" width="160" height="26" as="geometry" />
        </mxCell>
        <mxCell id="Zq1ixPwVC3m1ni08tat3-30" value="+ field: type" style="text;html=1;strokeColor=none;fillColor=none;align=left;verticalAlign=top;spacingLeft=4;spacingRight=4;whiteSpace=wrap;overflow=hidden;rotatable=0;points=[[0,0.5],[1,0.5]];portConstraint=eastwest;" vertex="1" parent="Zq1ixPwVC3m1ni08tat3-27">
          <mxGeometry y="78" width="160" height="26" as="geometry" />
        </mxCell>
        <mxCell id="Zq1ixPwVC3m1ni08tat3-31" style="edgeStyle=orthogonalEdgeStyle;rounded=0;orthogonalLoop=1;jettySize=auto;html=1;exitX=1;exitY=0.5;exitDx=0;exitDy=0;entryX=0.25;entryY=0;entryDx=0;entryDy=0;" edge="1" parent="1" source="Zq1ixPwVC3m1ni08tat3-12" target="Zq1ixPwVC3m1ni08tat3-23">
          <mxGeometry relative="1" as="geometry">
            <Array as="points">
              <mxPoint x="380" y="125" />
              <mxPoint x="380" y="220" />
              <mxPoint x="480" y="220" />
            </Array>
          </mxGeometry>
        </mxCell>
        <mxCell id="Zq1ixPwVC3m1ni08tat3-32" value="Change" style="ellipse;whiteSpace=wrap;html=1;" vertex="1" parent="1">
          <mxGeometry x="420" y="200" width="40" height="40" as="geometry" />
        </mxCell>
        <mxCell id="Zq1ixPwVC3m1ni08tat3-33" style="edgeStyle=orthogonalEdgeStyle;rounded=0;orthogonalLoop=1;jettySize=auto;html=1;exitX=1;exitY=0.5;exitDx=0;exitDy=0;entryX=0;entryY=0.5;entryDx=0;entryDy=0;" edge="1" parent="1" source="Zq1ixPwVC3m1ni08tat3-25" target="Zq1ixPwVC3m1ni08tat3-29">
          <mxGeometry relative="1" as="geometry" />
        </mxCell>
        <mxCell id="Zq1ixPwVC3m1ni08tat3-34" style="edgeStyle=orthogonalEdgeStyle;rounded=0;orthogonalLoop=1;jettySize=auto;html=1;exitX=0;exitY=0.5;exitDx=0;exitDy=0;entryX=1;entryY=0.5;entryDx=0;entryDy=0;" edge="1" parent="1" source="Zq1ixPwVC3m1ni08tat3-28" target="Zq1ixPwVC3m1ni08tat3-24">
          <mxGeometry relative="1" as="geometry" />
        </mxCell>
        <mxCell id="Zq1ixPwVC3m1ni08tat3-35" value="Change" style="ellipse;whiteSpace=wrap;html=1;" vertex="1" parent="1">
          <mxGeometry x="620" y="340" width="40" height="40" as="geometry" />
        </mxCell>
        <mxCell id="Zq1ixPwVC3m1ni08tat3-36" value="Change" style="ellipse;whiteSpace=wrap;html=1;" vertex="1" parent="1">
          <mxGeometry x="690" y="370" width="40" height="40" as="geometry" />
        </mxCell>
        <mxCell id="Zq1ixPwVC3m1ni08tat3-39" value="Change" style="ellipse;whiteSpace=wrap;html=1;" vertex="1" parent="1">
          <mxGeometry x="120" y="160" width="40" height="40" as="geometry" />
        </mxCell>
        <mxCell id="Zq1ixPwVC3m1ni08tat3-43" value="" style="shape=image;html=1;verticalAlign=top;verticalLabelPosition=bottom;labelBackgroundColor=#ffffff;imageAspect=0;aspect=fixed;image=https://cdn1.iconfinder.com/data/icons/jumpicon-basic-ui-glyph-1/32/-_Dot-More-Vertical-Menu-128.png" vertex="1" parent="1">
          <mxGeometry x="500" y="732" width="38" height="38" as="geometry" />
        </mxCell>
        <mxCell id="Zq1ixPwVC3m1ni08tat3-44" style="edgeStyle=orthogonalEdgeStyle;rounded=0;orthogonalLoop=1;jettySize=auto;html=1;exitX=0;exitY=0.5;exitDx=0;exitDy=0;entryX=1;entryY=0.5;entryDx=0;entryDy=0;" edge="1" parent="1" source="Zq1ixPwVC3m1ni08tat3-30">
          <mxGeometry relative="1" as="geometry">
            <mxPoint x="600" y="660" as="targetPoint" />
            <Array as="points">
              <mxPoint x="720" y="411" />
              <mxPoint x="720" y="660" />
            </Array>
          </mxGeometry>
        </mxCell>
        <mxCell id="Zq1ixPwVC3m1ni08tat3-45" style="edgeStyle=orthogonalEdgeStyle;rounded=0;orthogonalLoop=1;jettySize=auto;html=1;exitX=0;exitY=0.5;exitDx=0;exitDy=0;entryX=1;entryY=0.5;entryDx=0;entryDy=0;" edge="1" parent="1" source="Zq1ixPwVC3m1ni08tat3-30">
          <mxGeometry relative="1" as="geometry">
            <mxPoint x="600" y="710" as="targetPoint" />
            <Array as="points">
              <mxPoint x="720" y="411" />
              <mxPoint x="720" y="710" />
            </Array>
          </mxGeometry>
        </mxCell>
        <mxCell id="Zq1ixPwVC3m1ni08tat3-46" style="edgeStyle=orthogonalEdgeStyle;rounded=0;orthogonalLoop=1;jettySize=auto;html=1;exitX=0;exitY=0.5;exitDx=0;exitDy=0;entryX=1;entryY=0.5;entryDx=0;entryDy=0;startArrow=classic;startFill=1;" edge="1" parent="1" source="Zq1ixPwVC3m1ni08tat3-30">
          <mxGeometry relative="1" as="geometry">
            <mxPoint x="600" y="790" as="targetPoint" />
            <Array as="points">
              <mxPoint x="720" y="411" />
              <mxPoint x="720" y="790" />
            </Array>
          </mxGeometry>
        </mxCell>
        <mxCell id="Zq1ixPwVC3m1ni08tat3-47" value="MasterProcess" style="swimlane;html=1;fontStyle=0;childLayout=stackLayout;horizontal=1;startSize=26;fillColor=none;horizontalStack=0;resizeParent=1;resizeLast=0;collapsible=1;marginBottom=0;swimlaneFillColor=#ffffff;rounded=0;shadow=0;comic=0;labelBackgroundColor=none;strokeWidth=1;fontFamily=Verdana;fontSize=10;align=center;" vertex="1" parent="1">
          <mxGeometry x="1000" y="320" width="160" height="110" as="geometry" />
        </mxCell>
        <mxCell id="Zq1ixPwVC3m1ni08tat3-48" value="+ field: type" style="text;html=1;strokeColor=none;fillColor=none;align=left;verticalAlign=top;spacingLeft=4;spacingRight=4;whiteSpace=wrap;overflow=hidden;rotatable=0;points=[[0,0.5],[1,0.5]];portConstraint=eastwest;" vertex="1" parent="Zq1ixPwVC3m1ni08tat3-47">
          <mxGeometry y="26" width="160" height="26" as="geometry" />
        </mxCell>
        <mxCell id="Zq1ixPwVC3m1ni08tat3-49" value="+ field: type" style="text;html=1;strokeColor=none;fillColor=none;align=left;verticalAlign=top;spacingLeft=4;spacingRight=4;whiteSpace=wrap;overflow=hidden;rotatable=0;points=[[0,0.5],[1,0.5]];portConstraint=eastwest;" vertex="1" parent="Zq1ixPwVC3m1ni08tat3-47">
          <mxGeometry y="52" width="160" height="26" as="geometry" />
        </mxCell>
        <mxCell id="Zq1ixPwVC3m1ni08tat3-50" value="+ field: type" style="text;html=1;strokeColor=none;fillColor=none;align=left;verticalAlign=top;spacingLeft=4;spacingRight=4;whiteSpace=wrap;overflow=hidden;rotatable=0;points=[[0,0.5],[1,0.5]];portConstraint=eastwest;" vertex="1" parent="Zq1ixPwVC3m1ni08tat3-47">
          <mxGeometry y="78" width="160" height="26" as="geometry" />
        </mxCell>
        <mxCell id="Zq1ixPwVC3m1ni08tat3-51" style="edgeStyle=orthogonalEdgeStyle;rounded=0;orthogonalLoop=1;jettySize=auto;html=1;exitX=1;exitY=0.5;exitDx=0;exitDy=0;entryX=0;entryY=0.5;entryDx=0;entryDy=0;startArrow=none;startFill=0;" edge="1" parent="1" source="Zq1ixPwVC3m1ni08tat3-28" target="Zq1ixPwVC3m1ni08tat3-48">
          <mxGeometry relative="1" as="geometry" />
        </mxCell>
        <mxCell id="Zq1ixPwVC3m1ni08tat3-52" style="edgeStyle=orthogonalEdgeStyle;rounded=0;orthogonalLoop=1;jettySize=auto;html=1;exitX=0;exitY=0.5;exitDx=0;exitDy=0;entryX=1;entryY=0.5;entryDx=0;entryDy=0;startArrow=none;startFill=0;" edge="1" parent="1" source="Zq1ixPwVC3m1ni08tat3-50" target="Zq1ixPwVC3m1ni08tat3-30">
          <mxGeometry relative="1" as="geometry" />
        </mxCell>
        <mxCell id="Zq1ixPwVC3m1ni08tat3-53" value="ChildProcess" style="shape=umlFrame;whiteSpace=wrap;html=1;rounded=0;shadow=0;comic=0;labelBackgroundColor=none;strokeWidth=1;fontFamily=Verdana;fontSize=10;align=center;width=80;height=30;" vertex="1" parent="1">
          <mxGeometry x="1240" y="20" width="400" height="240" as="geometry" />
        </mxCell>
        <mxCell id="Zq1ixPwVC3m1ni08tat3-56" style="edgeStyle=orthogonalEdgeStyle;rounded=0;orthogonalLoop=1;jettySize=auto;html=1;exitX=1;exitY=0.5;exitDx=0;exitDy=0;entryX=0;entryY=0.5;entryDx=0;entryDy=0;entryPerimeter=0;startArrow=none;startFill=0;" edge="1" parent="1" source="Zq1ixPwVC3m1ni08tat3-54" target="Zq1ixPwVC3m1ni08tat3-55">
          <mxGeometry relative="1" as="geometry" />
        </mxCell>
        <mxCell id="Zq1ixPwVC3m1ni08tat3-68" style="edgeStyle=orthogonalEdgeStyle;rounded=0;orthogonalLoop=1;jettySize=auto;html=1;exitX=0;exitY=0.25;exitDx=0;exitDy=0;entryX=1;entryY=0.25;entryDx=0;entryDy=0;startArrow=none;startFill=0;" edge="1" parent="1" source="Zq1ixPwVC3m1ni08tat3-54" target="Zq1ixPwVC3m1ni08tat3-47">
          <mxGeometry relative="1" as="geometry">
            <Array as="points">
              <mxPoint x="1190" y="110" />
              <mxPoint x="1190" y="348" />
            </Array>
          </mxGeometry>
        </mxCell>
        <mxCell id="Zq1ixPwVC3m1ni08tat3-54" value="FileManager" style="html=1;" vertex="1" parent="1">
          <mxGeometry x="1300" y="100" width="160" height="40" as="geometry" />
        </mxCell>
        <mxCell id="Zq1ixPwVC3m1ni08tat3-55" value="file.txt" style="strokeWidth=2;html=1;shape=mxgraph.flowchart.document2;whiteSpace=wrap;size=0.25;" vertex="1" parent="1">
          <mxGeometry x="1510" y="90" width="100" height="60" as="geometry" />
        </mxCell>
        <mxCell id="Zq1ixPwVC3m1ni08tat3-57" value="ChildProcess" style="shape=umlFrame;whiteSpace=wrap;html=1;rounded=0;shadow=0;comic=0;labelBackgroundColor=none;strokeWidth=1;fontFamily=Verdana;fontSize=10;align=center;width=80;height=30;" vertex="1" parent="1">
          <mxGeometry x="1240" y="280" width="400" height="50" as="geometry" />
        </mxCell>
        <mxCell id="Zq1ixPwVC3m1ni08tat3-58" value="ChildProcess" style="shape=umlFrame;whiteSpace=wrap;html=1;rounded=0;shadow=0;comic=0;labelBackgroundColor=none;strokeWidth=1;fontFamily=Verdana;fontSize=10;align=center;width=80;height=30;" vertex="1" parent="1">
          <mxGeometry x="1240" y="350" width="400" height="50" as="geometry" />
        </mxCell>
        <mxCell id="Zq1ixPwVC3m1ni08tat3-59" value="" style="shape=image;html=1;verticalAlign=top;verticalLabelPosition=bottom;labelBackgroundColor=#ffffff;imageAspect=0;aspect=fixed;image=https://cdn1.iconfinder.com/data/icons/jumpicon-basic-ui-glyph-1/32/-_Dot-More-Vertical-Menu-128.png" vertex="1" parent="1">
          <mxGeometry x="1420" y="400" width="40" height="40" as="geometry" />
        </mxCell>
        <mxCell id="Zq1ixPwVC3m1ni08tat3-61" value="ChildProcess" style="shape=umlFrame;whiteSpace=wrap;html=1;rounded=0;shadow=0;comic=0;labelBackgroundColor=none;strokeWidth=1;fontFamily=Verdana;fontSize=10;align=center;width=80;height=30;" vertex="1" parent="1">
          <mxGeometry x="1240" y="440" width="400" height="50" as="geometry" />
        </mxCell>
        <mxCell id="Zq1ixPwVC3m1ni08tat3-62" style="edgeStyle=orthogonalEdgeStyle;rounded=0;orthogonalLoop=1;jettySize=auto;html=1;exitX=1;exitY=0.5;exitDx=0;exitDy=0;entryX=0;entryY=0.5;entryDx=0;entryDy=0;startArrow=none;startFill=0;" edge="1" parent="1" source="Zq1ixPwVC3m1ni08tat3-48" target="Zq1ixPwVC3m1ni08tat3-54">
          <mxGeometry relative="1" as="geometry">
            <Array as="points">
              <mxPoint x="1200" y="359" />
              <mxPoint x="1200" y="120" />
            </Array>
          </mxGeometry>
        </mxCell>
        <mxCell id="Zq1ixPwVC3m1ni08tat3-63" style="edgeStyle=orthogonalEdgeStyle;rounded=0;orthogonalLoop=1;jettySize=auto;html=1;exitX=1;exitY=0.5;exitDx=0;exitDy=0;entryX=0;entryY=0.6;entryDx=0;entryDy=0;entryPerimeter=0;startArrow=none;startFill=0;" edge="1" parent="1" source="Zq1ixPwVC3m1ni08tat3-49" target="Zq1ixPwVC3m1ni08tat3-57">
          <mxGeometry relative="1" as="geometry">
            <Array as="points">
              <mxPoint x="1220" y="385" />
              <mxPoint x="1220" y="310" />
            </Array>
          </mxGeometry>
        </mxCell>
        <mxCell id="Zq1ixPwVC3m1ni08tat3-64" style="edgeStyle=orthogonalEdgeStyle;rounded=0;orthogonalLoop=1;jettySize=auto;html=1;exitX=1;exitY=0.5;exitDx=0;exitDy=0;entryX=-0.009;entryY=0.66;entryDx=0;entryDy=0;entryPerimeter=0;startArrow=none;startFill=0;" edge="1" parent="1" source="Zq1ixPwVC3m1ni08tat3-49" target="Zq1ixPwVC3m1ni08tat3-58">
          <mxGeometry relative="1" as="geometry">
            <Array as="points">
              <mxPoint x="1220" y="385" />
              <mxPoint x="1220" y="383" />
            </Array>
          </mxGeometry>
        </mxCell>
        <mxCell id="Zq1ixPwVC3m1ni08tat3-66" style="edgeStyle=orthogonalEdgeStyle;rounded=0;orthogonalLoop=1;jettySize=auto;html=1;exitX=1;exitY=0.5;exitDx=0;exitDy=0;entryX=0;entryY=0.4;entryDx=0;entryDy=0;entryPerimeter=0;startArrow=classic;startFill=1;" edge="1" parent="1" source="Zq1ixPwVC3m1ni08tat3-49" target="Zq1ixPwVC3m1ni08tat3-61">
          <mxGeometry relative="1" as="geometry">
            <Array as="points">
              <mxPoint x="1220" y="385" />
              <mxPoint x="1220" y="460" />
            </Array>
          </mxGeometry>
        </mxCell>
        <mxCell id="Zq1ixPwVC3m1ni08tat3-69" value="Change" style="ellipse;whiteSpace=wrap;html=1;" vertex="1" parent="1">
          <mxGeometry x="1180" y="190" width="40" height="40" as="geometry" />
        </mxCell>
        <mxCell id="Zq1ixPwVC3m1ni08tat3-75" value="Client" style="shape=umlFrame;whiteSpace=wrap;html=1;rounded=0;shadow=0;comic=0;labelBackgroundColor=none;strokeWidth=1;fontFamily=Verdana;fontSize=10;align=center;" vertex="1" parent="1">
          <mxGeometry x="440" y="640" width="160" height="40" as="geometry" />
        </mxCell>
        <mxCell id="Zq1ixPwVC3m1ni08tat3-76" value="Client" style="shape=umlFrame;whiteSpace=wrap;html=1;rounded=0;shadow=0;comic=0;labelBackgroundColor=none;strokeWidth=1;fontFamily=Verdana;fontSize=10;align=center;" vertex="1" parent="1">
          <mxGeometry x="440" y="692" width="160" height="40" as="geometry" />
        </mxCell>
        <mxCell id="Zq1ixPwVC3m1ni08tat3-77" value="Client" style="shape=umlFrame;whiteSpace=wrap;html=1;rounded=0;shadow=0;comic=0;labelBackgroundColor=none;strokeWidth=1;fontFamily=Verdana;fontSize=10;align=center;" vertex="1" parent="1">
          <mxGeometry x="440" y="770" width="160" height="40" as="geometry" />
        </mxCell>
        <mxCell id="Zq1ixPwVC3m1ni08tat3-106" style="edgeStyle=orthogonalEdgeStyle;rounded=0;orthogonalLoop=1;jettySize=auto;html=1;exitX=0.5;exitY=0;exitDx=0;exitDy=0;entryX=0.5;entryY=1;entryDx=0;entryDy=0;startArrow=none;startFill=0;endArrow=block;endFill=0;dashed=1;" edge="1" parent="1" source="Zq1ixPwVC3m1ni08tat3-79" target="Zq1ixPwVC3m1ni08tat3-104">
          <mxGeometry relative="1" as="geometry" />
        </mxCell>
        <mxCell id="Zq1ixPwVC3m1ni08tat3-79" value="Change" style="swimlane;fontStyle=0;childLayout=stackLayout;horizontal=1;startSize=26;fillColor=none;horizontalStack=0;resizeParent=1;resizeParentMax=0;resizeLast=0;collapsible=1;marginBottom=0;" vertex="1" parent="1">
          <mxGeometry x="30" y="810" width="140" height="52" as="geometry" />
        </mxCell>
        <mxCell id="Zq1ixPwVC3m1ni08tat3-80" value="enum Command cmd;" style="text;strokeColor=none;fillColor=none;align=left;verticalAlign=top;spacingLeft=4;spacingRight=4;overflow=hidden;rotatable=0;points=[[0,0.5],[1,0.5]];portConstraint=eastwest;" vertex="1" parent="Zq1ixPwVC3m1ni08tat3-79">
          <mxGeometry y="26" width="140" height="26" as="geometry" />
        </mxCell>
        <mxCell id="Zq1ixPwVC3m1ni08tat3-87" style="edgeStyle=orthogonalEdgeStyle;rounded=0;orthogonalLoop=1;jettySize=auto;html=1;exitX=0.5;exitY=0;exitDx=0;exitDy=0;startArrow=none;startFill=0;entryX=0;entryY=0.5;entryDx=0;entryDy=0;endArrow=block;endFill=0;" edge="1" parent="1" source="Zq1ixPwVC3m1ni08tat3-83" target="Zq1ixPwVC3m1ni08tat3-80">
          <mxGeometry relative="1" as="geometry">
            <mxPoint x="100" y="881" as="targetPoint" />
          </mxGeometry>
        </mxCell>
        <mxCell id="Zq1ixPwVC3m1ni08tat3-83" value="ChangeFile" style="swimlane;fontStyle=0;childLayout=stackLayout;horizontal=1;startSize=26;fillColor=none;horizontalStack=0;resizeParent=1;resizeParentMax=0;resizeLast=0;collapsible=1;marginBottom=0;" vertex="1" parent="1">
          <mxGeometry x="-110" y="931" width="140" height="104" as="geometry" />
        </mxCell>
        <mxCell id="Zq1ixPwVC3m1ni08tat3-84" value="enum Command cmd;" style="text;strokeColor=none;fillColor=none;align=left;verticalAlign=top;spacingLeft=4;spacingRight=4;overflow=hidden;rotatable=0;points=[[0,0.5],[1,0.5]];portConstraint=eastwest;" vertex="1" parent="Zq1ixPwVC3m1ni08tat3-83">
          <mxGeometry y="26" width="140" height="26" as="geometry" />
        </mxCell>
        <mxCell id="Zq1ixPwVC3m1ni08tat3-85" value="size_t file_id;" style="text;strokeColor=none;fillColor=none;align=left;verticalAlign=top;spacingLeft=4;spacingRight=4;overflow=hidden;rotatable=0;points=[[0,0.5],[1,0.5]];portConstraint=eastwest;" vertex="1" parent="Zq1ixPwVC3m1ni08tat3-83">
          <mxGeometry y="52" width="140" height="26" as="geometry" />
        </mxCell>
        <mxCell id="Zq1ixPwVC3m1ni08tat3-86" value="size_t string_id;" style="text;strokeColor=none;fillColor=none;align=left;verticalAlign=top;spacingLeft=4;spacingRight=4;overflow=hidden;rotatable=0;points=[[0,0.5],[1,0.5]];portConstraint=eastwest;" vertex="1" parent="Zq1ixPwVC3m1ni08tat3-83">
          <mxGeometry y="78" width="140" height="26" as="geometry" />
        </mxCell>
        <mxCell id="Zq1ixPwVC3m1ni08tat3-93" style="edgeStyle=orthogonalEdgeStyle;rounded=0;orthogonalLoop=1;jettySize=auto;html=1;exitX=0.5;exitY=0;exitDx=0;exitDy=0;entryX=0.502;entryY=0.962;entryDx=0;entryDy=0;entryPerimeter=0;startArrow=none;startFill=0;endArrow=block;endFill=0;" edge="1" parent="1" source="Zq1ixPwVC3m1ni08tat3-89" target="Zq1ixPwVC3m1ni08tat3-86">
          <mxGeometry relative="1" as="geometry" />
        </mxCell>
        <mxCell id="Zq1ixPwVC3m1ni08tat3-89" value="InsertToFile" style="swimlane;fontStyle=0;childLayout=stackLayout;horizontal=1;startSize=26;fillColor=none;horizontalStack=0;resizeParent=1;resizeParentMax=0;resizeLast=0;collapsible=1;marginBottom=0;" vertex="1" parent="1">
          <mxGeometry x="-190" y="1081" width="140" height="144" as="geometry" />
        </mxCell>
        <mxCell id="Zq1ixPwVC3m1ni08tat3-90" value="enum Command cmd;" style="text;strokeColor=none;fillColor=none;align=left;verticalAlign=top;spacingLeft=4;spacingRight=4;overflow=hidden;rotatable=0;points=[[0,0.5],[1,0.5]];portConstraint=eastwest;" vertex="1" parent="Zq1ixPwVC3m1ni08tat3-89">
          <mxGeometry y="26" width="140" height="26" as="geometry" />
        </mxCell>
        <mxCell id="Zq1ixPwVC3m1ni08tat3-91" value="size_t file_id;" style="text;strokeColor=none;fillColor=none;align=left;verticalAlign=top;spacingLeft=4;spacingRight=4;overflow=hidden;rotatable=0;points=[[0,0.5],[1,0.5]];portConstraint=eastwest;" vertex="1" parent="Zq1ixPwVC3m1ni08tat3-89">
          <mxGeometry y="52" width="140" height="26" as="geometry" />
        </mxCell>
        <mxCell id="Zq1ixPwVC3m1ni08tat3-94" value="size_t string_id;" style="text;strokeColor=none;fillColor=none;align=left;verticalAlign=top;spacingLeft=4;spacingRight=4;overflow=hidden;rotatable=0;points=[[0,0.5],[1,0.5]];portConstraint=eastwest;" vertex="1" parent="Zq1ixPwVC3m1ni08tat3-89">
          <mxGeometry y="78" width="140" height="22" as="geometry" />
        </mxCell>
        <mxCell id="Zq1ixPwVC3m1ni08tat3-96" value="size_t left_id;" style="text;strokeColor=none;fillColor=none;align=left;verticalAlign=top;spacingLeft=4;spacingRight=4;overflow=hidden;rotatable=0;points=[[0,0.5],[1,0.5]];portConstraint=eastwest;" vertex="1" parent="Zq1ixPwVC3m1ni08tat3-89">
          <mxGeometry y="100" width="140" height="22" as="geometry" />
        </mxCell>
        <mxCell id="Zq1ixPwVC3m1ni08tat3-95" value="std::string str;" style="text;strokeColor=none;fillColor=none;align=left;verticalAlign=top;spacingLeft=4;spacingRight=4;overflow=hidden;rotatable=0;points=[[0,0.5],[1,0.5]];portConstraint=eastwest;" vertex="1" parent="Zq1ixPwVC3m1ni08tat3-89">
          <mxGeometry y="122" width="140" height="22" as="geometry" />
        </mxCell>
        <mxCell id="Zq1ixPwVC3m1ni08tat3-103" style="edgeStyle=orthogonalEdgeStyle;rounded=0;orthogonalLoop=1;jettySize=auto;html=1;exitX=0.5;exitY=0;exitDx=0;exitDy=0;entryX=0.506;entryY=0.973;entryDx=0;entryDy=0;entryPerimeter=0;startArrow=none;startFill=0;endArrow=block;endFill=0;" edge="1" parent="1" source="Zq1ixPwVC3m1ni08tat3-97" target="Zq1ixPwVC3m1ni08tat3-86">
          <mxGeometry relative="1" as="geometry" />
        </mxCell>
        <mxCell id="Zq1ixPwVC3m1ni08tat3-97" value="DeleteFromFile" style="swimlane;fontStyle=0;childLayout=stackLayout;horizontal=1;startSize=26;fillColor=none;horizontalStack=0;resizeParent=1;resizeParentMax=0;resizeLast=0;collapsible=1;marginBottom=0;" vertex="1" parent="1">
          <mxGeometry x="-10" y="1081" width="140" height="122" as="geometry" />
        </mxCell>
        <mxCell id="Zq1ixPwVC3m1ni08tat3-98" value="enum Command cmd;" style="text;strokeColor=none;fillColor=none;align=left;verticalAlign=top;spacingLeft=4;spacingRight=4;overflow=hidden;rotatable=0;points=[[0,0.5],[1,0.5]];portConstraint=eastwest;" vertex="1" parent="Zq1ixPwVC3m1ni08tat3-97">
          <mxGeometry y="26" width="140" height="26" as="geometry" />
        </mxCell>
        <mxCell id="Zq1ixPwVC3m1ni08tat3-99" value="size_t file_id;" style="text;strokeColor=none;fillColor=none;align=left;verticalAlign=top;spacingLeft=4;spacingRight=4;overflow=hidden;rotatable=0;points=[[0,0.5],[1,0.5]];portConstraint=eastwest;" vertex="1" parent="Zq1ixPwVC3m1ni08tat3-97">
          <mxGeometry y="52" width="140" height="26" as="geometry" />
        </mxCell>
        <mxCell id="Zq1ixPwVC3m1ni08tat3-100" value="size_t string_id;" style="text;strokeColor=none;fillColor=none;align=left;verticalAlign=top;spacingLeft=4;spacingRight=4;overflow=hidden;rotatable=0;points=[[0,0.5],[1,0.5]];portConstraint=eastwest;" vertex="1" parent="Zq1ixPwVC3m1ni08tat3-97">
          <mxGeometry y="78" width="140" height="22" as="geometry" />
        </mxCell>
        <mxCell id="Zq1ixPwVC3m1ni08tat3-101" value="size_t symbol_id;" style="text;strokeColor=none;fillColor=none;align=left;verticalAlign=top;spacingLeft=4;spacingRight=4;overflow=hidden;rotatable=0;points=[[0,0.5],[1,0.5]];portConstraint=eastwest;" vertex="1" parent="Zq1ixPwVC3m1ni08tat3-97">
          <mxGeometry y="100" width="140" height="22" as="geometry" />
        </mxCell>
        <mxCell id="Zq1ixPwVC3m1ni08tat3-104" value="&lt;p style=&quot;margin: 0px ; margin-top: 4px ; text-align: center&quot;&gt;&lt;i&gt;&amp;lt;&amp;lt;Interface&amp;gt;&amp;gt;&lt;/i&gt;&lt;br&gt;&lt;b&gt;IMessage&lt;/b&gt;&lt;/p&gt;&lt;hr size=&quot;1&quot;&gt;&lt;p style=&quot;margin: 0px ; margin-left: 4px&quot;&gt;&lt;br&gt;&lt;/p&gt;" style="verticalAlign=top;align=left;overflow=fill;fontSize=12;fontFamily=Helvetica;html=1;rounded=0;shadow=0;comic=0;labelBackgroundColor=none;strokeWidth=1" vertex="1" parent="1">
          <mxGeometry y="692" width="200" height="38" as="geometry" />
        </mxCell>
      </root>
    </mxGraphModel>
  </diagram>
</mxfile>
